<?xml version="1.0" standalone="no"?>
<!DOCTYPE svg PUBLIC "-//W3C//DTD SVG 20010904//EN"
 "http://www.w3.org/TR/2001/REC-SVG-20010904/DTD/svg10.dtd">
<svg version="1.0" xmlns="http://www.w3.org/2000/svg"
 width="156.000000pt" height="176.000000pt" viewBox="0 0 156.000000 176.000000"
 preserveAspectRatio="xMidYMid meet">
<metadata>
Created by potrace 1.15, written by Peter Selinger 2001-2017
</metadata>
<g transform="translate(0.000000,176.000000) scale(0.100000,-0.100000)"
fill="#000000" stroke="none">
<path d="M753 1440 c-29 -12 -56 -66 -49 -96 4 -13 16 -33 28 -44 l22 -20 -28
0 c-17 0 -39 -11 -57 -29 -29 -29 -29 -31 -29 -145 0 -102 2 -116 19 -128 15
-11 22 -35 31 -113 16 -146 9 -135 100 -135 90 0 85 -8 95 130 5 61 12 93 27
113 24 34 31 90 22 181 -5 58 -11 75 -34 98 -16 16 -39 28 -54 28 l-25 0 24
25 c62 61 -11 168 -92 135z"/>
<path d="M182 953 l-32 -4 2 -237 3 -237 240 -6 c240 -6 279 -11 317 -46 26
-23 38 -7 38 50 0 113 -46 219 -115 266 -42 28 -159 44 -258 35 -73 -7 -82
-13 -73 -49 8 -31 52 -54 128 -66 34 -6 73 -17 87 -25 24 -14 19 -14 -69 -11
-65 2 -105 9 -127 20 l-33 18 0 107 c0 81 -4 113 -16 130 -8 12 -12 22 -8 22
3 0 1 6 -6 14 -6 8 -19 12 -27 9 -11 -4 -14 -2 -9 5 4 7 4 11 -1 10 -4 0 -23
-3 -41 -5z"/>
<path d="M1350 951 c0 -6 -5 -10 -11 -8 -6 1 -20 -11 -32 -26 -19 -24 -22 -41
-22 -138 -1 -98 -3 -113 -20 -125 -31 -23 -85 -34 -165 -34 -70 1 -73 2 -49
15 14 8 57 19 95 25 38 6 79 18 91 26 27 17 40 61 24 77 -18 18 -246 14 -292
-6 -50 -21 -105 -80 -124 -135 -20 -58 -32 -197 -17 -205 5 -4 32 6 58 21 l49
27 243 4 242 3 0 239 c0 229 -1 239 -19 239 -11 0 -26 3 -35 6 -9 3 -16 1 -16
-5z"/>
</g>
</svg>
