<?xml version="1.0" standalone="no"?>
<!DOCTYPE svg PUBLIC "-//W3C//DTD SVG 20010904//EN"
 "http://www.w3.org/TR/2001/REC-SVG-20010904/DTD/svg10.dtd">
<svg version="1.0" xmlns="http://www.w3.org/2000/svg"
 width="742.000000pt" height="232.000000pt" viewBox="0 0 742.000000 232.000000"
 preserveAspectRatio="xMidYMid meet">
<metadata>
Created by potrace 1.15, written by Peter Selinger 2001-2017
</metadata>
<g transform="translate(0.000000,232.000000) scale(0.100000,-0.100000)"
fill="#000000" stroke="none">
<path d="M0 1160 l0 -1160 3710 0 3710 0 0 1160 0 1160 -3710 0 -3710 0 0
-1160z m1828 1051 c34 -25 99 -72 145 -104 45 -32 165 -118 266 -190 101 -73
197 -142 215 -155 17 -12 47 -33 66 -46 19 -14 60 -43 90 -65 30 -22 85 -61
122 -85 41 -27 70 -54 73 -68 3 -13 4 -129 3 -258 l-3 -234 -60 -14 c-33 -8
-70 -19 -82 -24 -11 -6 -26 -7 -32 -4 -7 5 -11 81 -11 236 l0 228 -29 24 c-60
47 -125 94 -171 123 -73 46 -219 147 -390 269 -213 153 -265 186 -292 186 -13
0 -45 -16 -73 -35 -27 -19 -174 -118 -325 -219 -347 -234 -416 -281 -462 -318
l-38 -30 0 -234 c0 -230 -1 -241 -30 -235 -3 0 -34 11 -70 23 -65 23 -65 23
-72 68 -12 82 -8 443 5 466 12 22 72 71 144 118 21 14 58 40 83 57 25 18 86
60 135 94 50 34 120 83 158 111 63 46 102 74 324 231 168 120 207 143 228 137
11 -3 48 -27 83 -53z m-10 -464 c34 -35 42 -50 42 -81 0 -106 -134 -166 -214
-96 -37 33 -51 78 -40 135 9 49 62 85 124 85 41 0 51 -5 88 -43z m77 -265 c80
-55 85 -72 85 -268 l0 -173 -34 -28 c-31 -26 -34 -34 -40 -103 -4 -41 -11 -93
-16 -115 -5 -22 -10 -68 -10 -101 0 -47 -5 -68 -21 -88 -20 -25 -24 -26 -124
-26 -99 0 -104 1 -124 25 -12 17 -22 49 -26 93 -4 37 -9 76 -12 87 -2 11 -7
58 -10 104 -6 82 -7 85 -47 125 l-41 41 0 166 0 166 29 41 c49 72 72 80 221
81 126 0 131 -1 170 -27z m1926 -64 c5 -7 9 -72 9 -144 0 -111 3 -133 16 -138
9 -3 67 -6 129 -6 152 0 147 -5 144 162 -2 86 1 132 8 136 6 4 67 5 134 2
l124 -5 3 -419 c2 -329 0 -421 -10 -428 -20 -12 -246 -10 -253 3 -4 6 -8 83
-9 172 l-1 162 -142 3 -143 3 0 -165 c0 -127 -3 -166 -14 -175 -9 -8 -54 -11
-132 -9 l-119 3 -3 420 c-2 345 0 422 11 430 21 15 238 9 248 -7z m1900 1 c5
-8 9 -73 9 -145 0 -111 3 -133 16 -138 26 -10 234 -7 254 4 18 10 20 22 19
138 0 70 0 133 0 140 1 10 31 12 134 10 l132 -3 3 -419 c2 -329 0 -421 -10
-428 -20 -12 -246 -10 -254 3 -4 6 -7 84 -8 173 l-1 161 -142 3 -143 3 -2
-173 -3 -173 -130 0 -130 0 -3 427 c-2 396 -1 427 15 430 9 2 66 2 126 2 81
-1 112 -5 118 -15z m-423 -90 l3 -96 -88 -6 c-48 -4 -101 -5 -118 -2 -18 2
-37 -2 -48 -12 -16 -15 -17 -41 -17 -321 1 -167 -1 -306 -3 -309 -7 -6 -235
-6 -245 1 -6 3 -10 136 -11 313 -1 195 -6 312 -12 319 -7 9 -42 13 -107 13
-53 0 -109 0 -124 0 l-28 1 0 84 c0 46 3 92 6 100 6 15 47 16 398 14 l391 -3
3 -96z m-4545 -406 c31 -11 58 -30 75 -53 23 -30 27 -45 28 -105 1 -138 7
-270 11 -282 7 -18 62 -44 103 -50 19 -2 48 -8 64 -14 16 -5 85 -9 152 -9 104
0 124 2 124 15 0 8 -1 15 -3 15 -1 0 -27 9 -57 20 -59 22 -64 23 -186 40 -75
11 -85 15 -120 51 -32 32 -37 43 -28 57 14 22 37 28 155 42 103 13 254 1 314
-25 17 -7 42 -17 57 -23 42 -17 114 -88 143 -140 54 -97 95 -328 64 -359 -9
-9 -17 -8 -34 3 -34 22 -159 54 -212 54 -27 0 -75 5 -108 10 -33 6 -184 10
-336 10 -231 0 -279 3 -297 16 -22 15 -22 16 -22 361 0 416 -3 407 113 366z
m2051 0 c12 -30 7 -715 -5 -729 -8 -10 -72 -13 -272 -13 -144 1 -307 -4 -362
-10 -55 -6 -122 -13 -150 -15 -55 -4 -69 -8 -134 -37 -59 -27 -71 -16 -71 70
0 37 4 71 9 77 6 5 14 36 20 69 10 65 19 90 54 147 27 46 110 116 146 124 14
4 31 11 38 16 12 9 103 26 181 33 26 2 93 -1 149 -7 85 -9 106 -14 124 -34
l21 -23 -31 -38 c-33 -41 -73 -55 -201 -68 -68 -6 -122 -25 -158 -53 l-27 -22
150 4 c164 4 227 13 279 41 41 22 46 46 46 249 1 139 1 141 28 173 43 50 153
81 166 46z m712 -680 c9 -43 20 -84 24 -91 4 -8 17 22 32 75 21 75 28 88 48
91 25 4 38 -6 45 -34 17 -76 33 -136 38 -140 3 -3 13 30 22 74 20 93 27 107
49 99 21 -8 19 -34 -13 -152 -25 -93 -29 -100 -53 -103 -32 -4 -40 8 -63 106
-21 84 -25 81 -53 -29 -17 -65 -22 -74 -44 -77 -14 -2 -30 3 -36 10 -13 16
-71 236 -64 243 3 3 16 5 28 5 20 0 25 -9 40 -77z m802 63 c41 -21 59 -47 66
-91 19 -137 -145 -213 -226 -104 -24 32 -26 104 -4 146 27 54 108 78 164 49z
m692 -11 c28 -25 26 -72 -4 -98 l-24 -21 34 -50 c25 -37 30 -52 21 -58 -24
-15 -38 -7 -68 42 -41 67 -67 68 -71 3 -3 -40 -6 -48 -23 -48 -19 0 -20 8 -23
114 -1 63 0 121 3 129 8 21 129 11 155 -13z m539 7 c5 -9 9 -55 9 -101 0 -88
7 -102 46 -95 28 5 50 -10 43 -30 -8 -20 -116 -23 -135 -4 -8 8 -12 49 -12
118 0 69 4 110 12 118 16 16 26 15 37 -6z m721 0 c46 -23 62 -55 57 -120 -4
-61 -31 -97 -86 -112 -43 -12 -101 -13 -118 -2 -14 9 -21 220 -9 240 11 19
116 15 156 -6z"/>
<path d="M4215 251 c-27 -30 -25 -99 4 -122 24 -20 57 -24 78 -11 33 21 37
100 6 134 -21 24 -66 23 -88 -1z"/>
<path d="M6173 273 c-9 -3 -13 -29 -13 -83 0 -69 2 -79 20 -85 25 -8 79 20 89
48 12 32 4 78 -16 98 -19 19 -59 29 -80 22z"/>
</g>
</svg>
