<?xml version="1.0" encoding="UTF-8" standalone="no"?>
<svg
   xmlns:dc="http://purl.org/dc/elements/1.1/"
   xmlns:cc="http://creativecommons.org/ns#"
   xmlns:rdf="http://www.w3.org/1999/02/22-rdf-syntax-ns#"
   xmlns:svg="http://www.w3.org/2000/svg"
   xmlns="http://www.w3.org/2000/svg"
   id="svg24"
   preserveAspectRatio="xMidYMid meet"
   viewBox="0 0 2717 949.16174"
   height="949.16174pt"
   width="2717pt"
   version="1.0">
  <defs
     id="defs28" />
  <metadata
     id="metadata2">
Created by potrace 1.15, written by Peter Selinger 2001-2017
<rdf:RDF>
  <cc:Work
     rdf:about="">
    <dc:format>image/svg+xml</dc:format>
    <dc:type
       rdf:resource="http://purl.org/dc/dcmitype/StillImage" />
  </cc:Work>
</rdf:RDF>
</metadata>
  <g
     style="fill:#000000;stroke:none"
     id="g22"
     transform="matrix(0.1,0,0,-0.1,0,949)">
    <path
       id="path4"
       d="m 5825,9476 c -11,-7 -101,-58 -200,-114 -99,-55 -227,-126 -285,-159 -58,-33 -240,-135 -405,-227 -165,-93 -331,-187 -370,-209 -38,-22 -108,-61 -155,-87 -47,-26 -157,-88 -245,-137 -88,-50 -214,-121 -280,-158 -307,-172 -468,-263 -565,-318 -58,-32 -186,-104 -285,-159 -160,-90 -317,-178 -555,-313 -41,-24 -154,-87 -250,-141 -96,-54 -204,-114 -240,-134 -88,-50 -420,-236 -730,-410 C 1120,6832 940,6730 860,6685 780,6640 605,6541 470,6465 335,6389 178,6301 120,6268 63,6236 11,6205 5,6199 c -18,-18 26,2 105,49 41,24 84,48 95,54 11,5 29,14 40,21 11,7 52,30 90,51 39,22 85,48 102,58 18,10 48,26 65,36 18,10 64,36 103,58 38,21 79,44 90,51 11,6 34,19 50,27 17,9 57,31 90,51 33,19 67,38 75,42 8,4 38,20 65,36 28,17 73,42 100,57 28,15 68,37 90,50 22,13 65,37 95,53 30,17 69,39 85,49 17,10 44,25 60,33 17,9 46,25 65,37 19,11 54,31 78,44 23,13 61,35 85,48 23,13 58,33 77,44 19,12 58,33 85,47 28,15 68,37 90,51 22,13 47,27 55,31 8,4 40,21 70,39 30,17 75,43 100,56 25,14 61,34 80,45 19,11 66,37 105,59 38,21 79,44 90,51 11,6 34,19 50,27 17,9 57,31 90,51 33,19 67,38 75,42 8,4 38,20 65,36 28,17 73,42 100,57 28,15 66,36 85,48 19,12 55,32 80,45 25,14 65,36 90,51 25,14 70,39 100,56 30,16 73,40 95,53 22,13 65,37 95,54 30,16 73,40 94,52 22,13 62,35 88,49 27,15 65,37 86,49 20,12 57,32 82,44 25,13 52,28 60,35 8,6 40,25 70,41 30,17 76,42 102,57 27,14 67,37 90,50 24,13 59,33 78,45 19,11 42,24 50,28 8,4 40,21 70,39 30,17 75,43 100,56 25,14 61,34 80,45 19,11 66,37 105,59 38,21 79,44 90,51 11,6 34,19 50,27 17,9 57,31 90,51 33,19 67,38 75,42 8,4 38,20 65,36 28,17 73,42 100,57 28,15 67,37 88,48 60,35 108,62 159,90 27,15 65,37 86,49 20,12 57,32 82,44 25,13 52,28 60,35 8,6 41,25 73,43 115,63 173,95 202,113 17,10 44,25 60,33 17,9 37,20 45,25 8,5 31,19 50,30 19,11 28,20 20,20 -9,0 -24,-6 -35,-14 z" />
    <path
       id="path6"
       d="m 6010,9447 c 101,-58 346,-197 390,-221 56,-30 224,-125 240,-136 8,-6 22,-13 30,-17 19,-9 250,-140 270,-153 8,-6 22,-13 30,-17 19,-9 250,-140 270,-153 8,-6 22,-13 30,-17 8,-4 67,-37 130,-73 63,-37 122,-70 130,-73 8,-4 31,-17 50,-29 19,-11 60,-35 90,-51 30,-17 72,-41 93,-54 21,-13 48,-28 60,-34 12,-5 38,-19 57,-31 19,-11 60,-35 90,-51 30,-17 72,-41 93,-54 21,-13 48,-28 60,-34 12,-5 38,-19 57,-31 19,-11 60,-35 90,-51 30,-17 72,-41 93,-54 21,-13 48,-28 60,-34 12,-5 38,-19 57,-31 19,-11 60,-35 90,-51 30,-17 72,-41 93,-54 21,-13 48,-28 60,-34 12,-5 38,-19 57,-31 19,-11 55,-32 80,-46 25,-13 70,-40 101,-58 31,-19 60,-34 63,-34 4,0 32,-16 62,-35 30,-19 56,-35 59,-35 2,0 42,-22 89,-50 47,-27 87,-50 91,-50 3,0 24,-12 48,-27 23,-14 67,-40 97,-56 30,-17 69,-39 85,-49 17,-10 41,-23 55,-30 14,-7 49,-27 78,-45 29,-18 54,-33 57,-33 2,0 42,-22 89,-50 47,-27 87,-50 89,-50 3,0 66,-36 142,-80 76,-44 140,-80 142,-80 3,0 31,-15 62,-34 31,-18 76,-45 101,-58 25,-14 61,-35 80,-46 19,-12 55,-32 80,-45 55,-30 219,-123 240,-137 8,-6 25,-14 37,-20 12,-5 39,-20 60,-33 21,-13 63,-37 93,-54 30,-16 71,-40 90,-51 19,-12 45,-26 57,-31 12,-6 39,-21 60,-34 21,-13 63,-37 93,-54 30,-16 71,-40 90,-51 19,-12 45,-26 57,-31 12,-6 39,-21 60,-34 21,-13 63,-37 93,-54 30,-16 71,-40 90,-51 19,-12 46,-27 60,-33 14,-6 33,-18 42,-26 17,-15 18,-82 18,-1150 V 3910 l -92,-2 c -51,0 -102,0 -113,1 -37,3 -309,-41 -405,-65 -182,-48 -329,-122 -417,-211 -28,-29 -54,-53 -57,-53 -3,0 -6,510 -6,1133 v 1133 l -27,16 c -16,8 -55,30 -88,48 -33,18 -118,66 -190,105 -71,40 -157,87 -190,105 -73,39 -176,96 -230,127 -22,12 -53,29 -70,37 -16,8 -57,30 -90,49 -101,57 -147,83 -220,122 -38,20 -95,51 -125,68 -30,16 -111,61 -180,99 -69,37 -132,73 -140,78 -8,6 -22,13 -30,17 -8,4 -67,36 -130,71 -63,35 -124,68 -135,73 -11,5 -38,20 -60,32 -58,33 -146,82 -212,118 -32,17 -76,42 -98,54 -22,13 -85,47 -140,77 -136,74 -232,128 -280,155 -22,12 -49,27 -60,32 -11,5 -58,31 -105,58 -47,27 -105,59 -130,71 -25,13 -52,27 -60,32 -8,5 -51,29 -95,53 -44,25 -147,82 -230,128 -82,45 -170,94 -195,107 -71,38 -191,104 -235,129 -22,12 -49,27 -60,32 -11,5 -43,22 -70,38 -47,28 -93,53 -252,140 -38,20 -106,57 -153,83 -47,26 -116,64 -155,86 -38,21 -88,48 -110,61 -22,12 -61,33 -88,47 -26,14 -67,37 -91,51 l -43,25 -49,-26 c -27,-15 -81,-44 -120,-64 -100,-54 -256,-139 -274,-150 -8,-5 -35,-20 -60,-33 -25,-13 -81,-43 -125,-68 -80,-43 -169,-91 -235,-127 -19,-11 -60,-33 -90,-49 -30,-17 -95,-52 -145,-79 -49,-26 -108,-58 -130,-71 -22,-12 -60,-33 -85,-46 -25,-13 -70,-38 -100,-54 -30,-17 -91,-50 -135,-74 -44,-23 -98,-53 -120,-66 -22,-12 -65,-35 -95,-51 -52,-27 -109,-58 -225,-122 -27,-15 -77,-42 -110,-60 -91,-49 -266,-144 -360,-196 -33,-19 -69,-38 -80,-43 -11,-5 -73,-38 -138,-74 -64,-36 -136,-75 -160,-87 -23,-12 -60,-33 -82,-45 -22,-13 -60,-34 -85,-46 -24,-13 -85,-46 -135,-74 -49,-28 -110,-61 -135,-74 -25,-13 -58,-31 -75,-40 -16,-9 -75,-41 -130,-70 -55,-30 -116,-63 -135,-74 -68,-39 -156,-87 -200,-109 -25,-12 -70,-36 -100,-54 -53,-30 -115,-64 -245,-134 -88,-47 -203,-110 -260,-142 -27,-15 -72,-39 -100,-53 -27,-15 -81,-44 -120,-65 -38,-22 -98,-54 -133,-72 l -62,-33 V 4718 3590 l -67,69 c -52,52 -88,78 -153,109 -173,84 -437,139 -700,146 -85,2 -135,2 -110,0 273,-21 355,-30 475,-55 267,-56 373,-104 482,-216 40,-41 77,-72 83,-68 7,4 10,361 10,1135 v 1129 l 77,42 c 43,23 98,53 123,67 25,14 108,59 185,100 77,41 150,80 161,87 12,8 79,45 150,83 71,38 206,111 299,162 94,51 222,121 285,155 63,34 246,133 405,220 160,87 342,186 405,220 63,34 140,76 170,92 175,96 304,167 455,248 94,51 247,134 340,185 200,109 403,219 800,435 160,87 394,214 520,283 409,222 428,232 436,232 4,0 58,-28 121,-63 62,-35 149,-83 193,-106 44,-24 103,-56 130,-71 28,-15 96,-53 153,-84 155,-85 291,-160 405,-223 56,-31 145,-80 197,-108 101,-55 177,-97 435,-239 88,-49 228,-126 310,-171 83,-45 177,-97 210,-115 33,-18 103,-57 155,-85 52,-29 118,-64 145,-80 28,-15 97,-53 155,-85 58,-32 188,-104 290,-160 102,-56 235,-129 295,-162 98,-54 235,-129 350,-193 22,-12 67,-37 100,-55 33,-18 128,-70 210,-115 83,-46 204,-112 270,-148 66,-36 152,-83 190,-105 39,-21 152,-84 252,-138 l 182,-99 1,-1122 c 0,-617 3,-1128 6,-1137 10,-26 40,-19 71,16 68,78 192,155 323,200 125,43 341,80 535,92 l 190,11 v 1143 1143 l -300,171 c -165,94 -334,189 -375,212 -41,24 -133,76 -205,116 -71,40 -159,90 -195,110 -36,20 -153,86 -260,147 -107,61 -463,262 -790,448 -327,185 -680,385 -785,445 -104,59 -257,146 -340,192 -283,161 -600,340 -755,428 -197,111 -503,284 -645,365 -610,346 -767,435 -905,513 -63,35 -149,84 -191,108 -42,24 -82,44 -90,44 -7,0 20,-19 61,-43 z" />
    <path
       id="path8"
       d="m 5775,7234 c -278,-41 -493,-196 -560,-403 -13,-40 -16,-76 -13,-146 3,-79 8,-101 36,-158 106,-215 348,-346 642,-347 241,0 441,76 572,219 263,287 94,688 -343,811 -72,20 -265,34 -334,24 z" />
    <path
       id="path10"
       d="m 12935,6138 c -3,-13 -4,-963 -3,-2113 l 3,-2090 858,-3 857,-2 v 810 810 h 615 615 l 2,-807 3,-808 858,-3 857,-2 -2,2112 -3,2113 h -855 -855 l -3,-767 -2,-768 h -615 -615 l -2,768 -3,767 -852,3 -853,2 z m 1693,-766 2,-772 633,2 632,3 3,773 2,772 838,-2 837,-3 3,-2102 2,-2103 h -840 -840 v 815 815 l -632,-2 -633,-3 -3,-812 -2,-813 h -840 -840 v 2105 2105 l 838,-2 837,-3 z" />
    <path
       id="path12"
       d="m 18106,6144 c -8,-20 -8,-988 0,-1008 6,-14 65,-16 565,-16 h 559 l 2,-1592 3,-1593 813,-3 812,-2 v 1595 1595 h 565 565 l -2,518 -3,517 -1936,3 c -1760,2 -1937,1 -1943,-14 z m 3859,-504 v -505 l -562,-3 -563,-2 V 3535 1940 h -795 -795 v 1595 1595 l -562,2 -563,3 -3,508 -2,507 1922,-2 1923,-3 z" />
    <path
       id="path14"
       d="m 22507,6153 c -4,-3 -7,-955 -7,-2115 V 1930 h 860 860 v 810 810 h 615 615 v -810 -810 h 860 860 v 2104 c 0,1761 -2,2105 -14,2115 -10,8 -242,10 -857,9 l -844,-3 -3,-767 -2,-768 h -615 -615 l -2,768 -3,767 -851,3 c -468,1 -854,-1 -857,-5 z m 1691,-780 2,-773 h 635 635 v 775 775 l 838,-2 837,-3 3,-2102 2,-2103 h -840 -840 v 815 815 l -632,-2 -633,-3 -3,-812 -2,-813 h -840 -840 v 2105 2105 l 838,-2 837,-3 z" />
    <path
       id="path16"
       d="m 5240,6043 c -61,-10 -210,-58 -265,-85 -149,-72 -280,-193 -338,-312 -57,-116 -57,-113 -57,-831 v -661 l 30,-47 c 48,-77 136,-118 297,-142 31,-5 42,-12 46,-28 3,-12 65,-384 137,-827 72,-443 136,-815 141,-827 l 9,-23 h 674 674 l 11,52 c 19,88 106,670 212,1418 17,118 36,221 43,228 7,7 39,20 72,28 88,23 174,68 219,114 l 40,41 3,667 c 1,439 -1,684 -8,718 -26,122 -115,251 -238,342 -88,65 -178,109 -307,149 l -90,28 -640,1 c -352,1 -651,0 -665,-3 z" />
    <path
       id="path18"
       d="M 0,2092 V 452 l 1368,-5 c 1339,-5 1714,-12 2137,-42 116,-8 280,-20 365,-25 268,-19 784,-94 955,-140 199,-53 342,-111 414,-168 75,-61 96,-72 131,-72 45,0 74,28 89,87 17,63 14,405 -4,552 -98,776 -492,1342 -1121,1612 -207,89 -478,156 -714,178 -207,19 -1155,32 -1515,21 -378,-12 -505,-23 -582,-52 -87,-32 -117,-103 -88,-206 14,-47 28,-68 84,-122 110,-109 282,-181 574,-244 157,-33 467,-77 657,-91 92,-8 349,-52 495,-86 249,-58 419,-148 441,-234 13,-50 9,-51 -202,-58 -363,-13 -986,-8 -1189,8 -360,29 -494,54 -758,144 -288,98 -341,132 -399,249 l -33,67 -5,725 -5,725 -29,49 c -86,146 -262,267 -483,331 -104,30 -312,61 -470,71 l -113,7 z" />
    <path
       id="path20"
       d="m 11590,3723 c -113,-9 -334,-45 -407,-67 -102,-31 -213,-79 -283,-124 -73,-47 -168,-145 -204,-212 l -29,-54 2,-635 c 1,-350 -3,-679 -8,-732 -11,-115 -38,-175 -104,-236 -61,-56 -92,-71 -317,-148 -273,-93 -415,-121 -778,-150 -196,-16 -826,-20 -1185,-8 l -197,6 v 34 c 0,65 92,136 252,197 143,53 512,126 742,146 483,42 864,128 1063,241 159,91 237,230 189,342 -39,93 -127,110 -666,127 -355,12 -1313,-2 -1520,-21 -141,-13 -320,-47 -462,-88 -112,-33 -236,-77 -253,-91 -5,-4 -21,-11 -35,-15 -48,-14 -246,-130 -335,-197 -403,-303 -650,-757 -742,-1365 -21,-138 -24,-540 -5,-594 35,-99 110,-107 202,-23 99,90 335,172 655,229 346,61 492,77 1095,120 430,30 800,37 2153,42 l 1377,5 v 1627 c 0,1252 -3,1630 -12,1639 -11,11 -81,13 -188,5 z" />
  </g>
</svg>
