<?xml version="1.0" standalone="no"?>
<!DOCTYPE svg PUBLIC "-//W3C//DTD SVG 20010904//EN"
 "http://www.w3.org/TR/2001/REC-SVG-20010904/DTD/svg10.dtd">
<svg version="1.0" xmlns="http://www.w3.org/2000/svg"
 width="397.000000pt" height="397.000000pt" viewBox="0 0 397.000000 397.000000"
 preserveAspectRatio="xMidYMid meet">
<metadata>
Created by potrace 1.15, written by Peter Selinger 2001-2017
</metadata>
<g transform="translate(0.000000,397.000000) scale(0.100000,-0.100000)"
fill="#000000" stroke="none">
<path d="M1650 3530 c-568 -418 -600 -441 -600 -446 0 -6 -2 -7 519 371 227
165 418 300 424 299 9 -1 826 -594 905 -656 6 -6 12 -8 12 -5 0 13 -902 677
-920 677 -8 -1 -161 -108 -340 -240z"/>
<path d="M1445 3044 c-291 -206 -541 -383 -555 -394 -64 -52 93 52 250 164
458 327 841 596 850 596 10 0 403 -278 855 -605 155 -112 276 -192 245 -162
-34 33 -1090 777 -1102 776 -7 0 -251 -169 -543 -375z"/>
<path d="M1902 3013 c-87 -43 -119 -160 -68 -248 47 -79 142 -107 232 -66 65
30 89 72 89 157 0 62 -3 75 -29 108 -16 21 -44 44 -62 52 -45 19 -121 17 -162
-3z"/>
<path d="M517 2703 c-4 -3 -7 -174 -7 -378 l0 -372 58 -7 c86 -10 149 -34 186
-72 18 -19 36 -34 40 -34 3 0 6 169 6 376 -1 207 -3 374 -6 371 -3 -2 -5 -170
-4 -371 l0 -367 -34 34 c-37 38 -100 62 -184 73 l-52 7 2 373 c2 206 3 374 2
374 0 0 -4 -3 -7 -7z"/>
<path d="M3448 2335 l2 -373 -22 -6 c-13 -3 -32 -6 -44 -6 -45 0 -122 -31
-162 -66 l-42 -36 0 365 0 364 -22 19 c-23 19 -23 19 -5 -2 15 -19 17 -53 17
-387 0 -202 4 -367 9 -367 4 0 25 16 45 35 38 36 97 58 189 70 l47 6 0 374 c0
206 -3 376 -7 378 -5 3 -7 -163 -5 -368z"/>
<path d="M1775 2631 c-51 -23 -101 -79 -114 -128 -6 -21 -11 -136 -11 -261 l0
-223 25 -24 c13 -14 35 -25 47 -25 23 0 24 -4 59 -277 l34 -278 169 -3 c93 -1
173 1 177 5 6 6 69 501 69 543 0 4 14 13 31 20 59 25 61 35 57 292 l-3 233
-27 47 c-21 34 -41 53 -80 72 -50 25 -59 26 -222 26 -144 0 -177 -3 -211 -19z"/>
<path d="M510 1366 l0 -534 443 -5 c452 -5 568 -13 717 -52 71 -18 130 -46
149 -69 8 -9 24 -16 37 -16 19 0 24 7 30 46 8 56 -9 234 -32 324 -55 220 -200
369 -399 410 -37 8 -149 13 -290 14 -263 1 -288 -4 -293 -62 -8 -80 81 -130
295 -167 76 -13 154 -31 173 -39 39 -16 90 -53 90 -65 0 -14 -240 -21 -337
-11 -106 11 -221 51 -264 92 l-29 26 0 241 c0 224 -2 245 -20 282 -34 66 -141
119 -240 119 l-30 0 0 -534z"/>
<path d="M3347 1889 c-60 -14 -114 -46 -144 -86 l-28 -36 -3 -253 -3 -253 -28
-28 c-41 -41 -151 -80 -263 -92 -96 -11 -338 -4 -338 9 0 13 46 49 85 65 22 9
102 27 178 40 214 37 303 87 295 167 -5 57 -30 63 -293 62 -268 -1 -347 -13
-441 -70 -170 -101 -261 -282 -280 -552 -9 -129 -1 -172 30 -172 13 0 29 7 37
16 19 23 78 51 149 69 149 39 265 47 718 52 l442 5 0 534 0 534 -37 -1 c-21
-1 -55 -5 -76 -10z"/>
</g>
</svg>
